<svg width="70" height="29" viewBox="0 0 70 29" fill="none" xmlns="http://www.w3.org/2000/svg">
<rect width="70" height="29" rx="6" fill="#1E2326"/>
<path d="M44.7743 6.50059C42.8642 6.47827 40.9994 7.08851 39.4644 8.23811L33.301 12.5025C32.4173 8.84355 29.1214 6.50067 25.3153 6.50067C20.769 6.50067 17 9.70651 17 14.485C17 19.2936 20.7688 22.4996 25.3153 22.4996C27.2728 22.5185 29.1773 21.8568 30.7099 20.6253L36.6999 16.4808C37.5859 20.1574 40.8923 22.4996 44.7743 22.4996C49.231 22.4996 53 19.2936 53 14.485C53 9.70647 49.2313 6.50059 44.7743 6.50059ZM25.3153 18.4166C23.3713 18.4166 21.6066 16.874 21.6066 14.4849C21.6066 12.1259 23.3713 10.5531 25.3153 10.5531C27.1699 10.5531 28.9346 12.1259 28.9346 14.4849C28.9346 16.8742 27.1699 18.4166 25.3153 18.4166ZM44.7743 18.4166C42.8302 18.4166 41.0656 16.874 41.0656 14.4849C41.0656 12.1259 42.8302 10.5531 44.7743 10.5531C46.6289 10.5531 48.3936 12.1259 48.3936 14.4849C48.3936 16.8742 46.6289 18.4166 44.7743 18.4166Z" fill="white"/>
</svg>
