<?xml version="1.0" encoding="UTF-8"?>
<svg xmlns="http://www.w3.org/2000/svg" width="31" height="31" viewBox="0 0 24 24" fill="none">
  <path d="M12 24C18.6274 24 24 18.6274 24 12C24 5.37258 18.6274 0 12 0C5.37258 0 0 5.37258 0 12C0 18.6274 5.37258 24 12 24Z" fill="#6DA544"></path>
  <path d="M11.9999 4.69598L21.913 12.0003L11.9999 19.3047L2.08691 12.0003L11.9999 4.69598Z" fill="#FFDA44"></path>
  <path d="M11.9998 16.1738C14.305 16.1738 16.1737 14.3051 16.1737 11.9999C16.1737 9.69476 14.305 7.82605 11.9998 7.82605C9.69464 7.82605 7.82593 9.69476 7.82593 11.9999C7.82593 14.3051 9.69464 16.1738 11.9998 16.1738Z" fill="#F0F0F0"></path>
  <path d="M9.91275 11.739C9.18694 11.739 8.48649 11.8494 7.82715 12.0542C7.85635 14.3342 9.71278 16.1738 11.9997 16.1738C13.4138 16.1738 14.6628 15.4699 15.4178 14.3941C14.126 12.777 12.1385 11.739 9.91275 11.739Z" fill="#0052B4"></path>
  <path d="M16.0964 12.7996C16.1466 12.5407 16.1738 12.2735 16.1738 11.9999C16.1738 9.69472 14.305 7.82605 11.9999 7.82605C10.2799 7.82605 8.8033 8.86672 8.16431 10.3526C8.72915 10.2355 9.31396 10.1739 9.91297 10.1739C12.3372 10.1738 14.5303 11.1815 16.0964 12.7996Z" fill="#0052B4"></path>
</svg>
