<?xml version="1.0" encoding="UTF-8"?>
<svg xmlns="http://www.w3.org/2000/svg" width="241" height="55" viewBox="0 0 241 55" fill="none">
  <path fill-rule="evenodd" clip-rule="evenodd" d="M73.7151 29.7754L74.3993 27.9482H75.6318V15.2709H73.7151V13.4667H79.6027L78.918 15.2709H77.686V27.9482H79.6027V29.7754H73.7151ZM88.502 21.4384C88.502 19.6565 87.6574 18.7659 85.9917 18.7659C84.3255 18.7659 83.4814 19.6795 83.4814 21.4613C83.4814 23.1514 84.3255 23.9962 86.0146 23.9962C87.6804 23.9962 88.502 23.1285 88.502 21.4384ZM89.8715 31.2373C89.8715 30.5749 89.6887 30.1407 89.3237 29.9124C88.9358 29.6842 88.2052 29.5701 87.1102 29.5701H85.0102C83.2987 29.5701 82.4546 30.3008 82.4546 31.7855C82.4546 33.0645 83.4585 33.7269 85.4668 33.7269C88.4109 33.7269 89.8715 32.9045 89.8715 31.2373ZM80.5374 31.8538C80.5374 30.2778 81.4273 29.273 83.2075 28.8389C82.4999 28.4965 82.1349 27.9024 82.1349 27.1258C82.1349 26.2805 82.6368 25.5728 83.6184 24.9786C82.226 24.4074 81.496 22.9456 81.496 21.5296C81.496 18.6747 83.2757 17.304 86.0599 17.304C86.6993 17.304 87.2466 17.3723 87.7262 17.5323H91.948L91.3549 19.0853H89.7575C90.2365 19.7253 90.4875 20.5248 90.4875 21.4613C90.4875 23.9962 88.639 25.3898 85.9917 25.3898C85.5809 25.3898 85.2612 25.3669 85.0331 25.3216C84.2802 25.7322 83.9152 26.2351 83.9152 26.8058C83.9152 27.4229 84.5312 27.7424 85.7178 27.7424H87.7944C90.2594 27.7424 91.7882 28.8618 91.7882 31.0543C91.7882 33.864 89.6887 35.2575 85.4898 35.2575C82.6368 35.2575 80.5374 34.2751 80.5374 31.8538ZM101.03 17.4411L100.779 19.2912C100.391 19.2 99.8659 19.1312 99.455 19.1312C97.5607 19.1312 95.895 20.776 95.895 23.2426V29.7754H93.8866V17.5323H95.5295L95.758 19.7707H95.8492C96.625 18.4229 97.8804 17.304 99.592 17.304C100.048 17.304 100.619 17.3498 101.03 17.4411ZM103.38 22.4432H109.61C109.587 20.3648 108.674 18.9483 106.643 18.9483C104.726 18.9483 103.585 20.2507 103.38 22.4432ZM111.709 22.8315V24.0421H103.334C103.402 26.8058 104.794 28.2906 107.236 28.2906C108.423 28.2906 109.632 28.0624 110.591 27.697L111.161 29.2042C109.906 29.7525 108.811 30.0037 107.145 30.0037C103.653 30.0037 101.257 27.8341 101.257 23.7451C101.257 19.7253 103.425 17.304 106.666 17.304C109.792 17.304 111.709 19.4966 111.709 22.8315ZM114.994 12.9413C115.61 12.9413 116.158 13.3296 116.158 14.2203C116.158 15.0886 115.61 15.4992 114.994 15.4992C114.333 15.4992 113.808 15.0886 113.808 14.2203C113.808 13.3296 114.333 12.9413 114.994 12.9413ZM112.37 33.5898C113.671 32.9962 113.967 32.1279 113.967 29.9583V17.5323H115.975V30.0725C115.975 32.4708 115.336 34.3663 113.009 35.2575L112.37 33.5898ZM124.168 23.8597C121.11 23.9738 120.128 24.8416 120.128 26.3947C120.128 27.7653 121.041 28.3819 122.365 28.3819C124.419 28.3819 125.97 27.2629 125.97 24.8874V23.7909L124.168 23.8597ZM127.956 21.4384V29.7754H126.495L126.107 28.0394H126.016C124.943 29.3871 123.962 30.0037 121.908 30.0037C119.695 30.0037 118.051 28.8618 118.051 26.3723C118.051 23.928 119.923 22.5802 123.917 22.4661L125.993 22.3978V21.6666C125.993 19.6336 125.058 18.9483 123.46 18.9483C122.182 18.9483 121.018 19.4053 120.014 19.8848L119.398 18.3776C120.471 17.8064 121.976 17.3269 123.574 17.3269C126.541 17.3269 127.956 18.583 127.956 21.4384ZM142.856 17.9664C142.719 17.6011 142.24 16.0933 142.08 15.5221C141.852 16.4587 141.555 17.4411 141.373 17.9664L139.524 22.9002H144.682L142.856 17.9664ZM145.298 24.7274H138.84L136.9 29.7754H134.823L141.19 13.3979H143.039L149.383 29.7754H147.261L145.298 24.7274ZM158.624 24.065V23.6997C158.624 20.6618 157.802 18.9712 155.087 18.9712C152.919 18.9712 151.846 20.8213 151.846 23.7226C151.846 26.6463 152.919 28.3365 155.11 28.3365C157.688 28.3365 158.624 26.92 158.624 24.065ZM149.77 23.6768C149.77 19.4741 151.778 17.304 154.813 17.304C156.707 17.304 157.848 18.1035 158.601 19.1083H158.738C158.693 18.72 158.601 17.7605 158.601 17.304V13.1925L160.61 12.416V29.7754H158.989L158.693 28.1306H158.601C157.871 29.1813 156.707 30.0037 154.79 30.0037C151.755 30.0037 149.77 27.8794 149.77 23.6768ZM162.274 17.5323H164.419L167.021 24.7504C167.386 25.7552 167.865 27.24 168.002 27.9936H168.094C168.253 27.24 168.778 25.7322 169.12 24.7504L171.722 17.5323H173.867L169.212 29.7754H166.907L162.274 17.5323ZM176.719 22.4432H182.949C182.926 20.3648 182.013 18.9483 179.982 18.9483C178.065 18.9483 176.924 20.2507 176.719 22.4432ZM185.048 22.8315V24.0421H176.673C176.742 26.8058 178.133 28.2906 180.575 28.2906C181.762 28.2906 182.972 28.0624 183.93 27.697L184.5 29.2042C183.246 29.7525 182.15 30.0037 180.484 30.0037C176.992 30.0037 174.596 27.8341 174.596 23.7451C174.596 19.7253 176.764 17.304 180.005 17.304C183.132 17.304 185.048 19.4966 185.048 22.8315ZM197.531 21.8037V29.7754H195.545V21.9408C195.545 19.9765 194.678 18.9941 192.806 18.9941C190.091 18.9941 189.223 20.5701 189.223 23.4256V29.7754H187.215V17.5323H188.835L189.132 19.2H189.246C190.045 17.9205 191.551 17.304 193.103 17.304C196.024 17.304 197.531 18.6517 197.531 21.8037ZM205.699 28.0624L206.247 29.5013C205.813 29.7754 204.946 30.0037 204.01 30.0037C202.094 30.0037 200.427 29.1813 200.427 26.2122V15.4768L202.436 14.7227V17.5323H205.973V19.0853H202.436V26.1664C202.436 27.6512 203.234 28.3594 204.353 28.3594C204.809 28.3594 205.425 28.1994 205.699 28.0624ZM208.505 29.7754V17.5323H210.513V29.7754H208.505ZM210.696 14.2203C210.696 15.0885 210.148 15.4992 209.532 15.4992C208.87 15.4992 208.346 15.0885 208.346 14.2203C208.346 13.3296 208.87 12.9413 209.532 12.9413C210.148 12.9413 210.696 13.3296 210.696 14.2203ZM217.017 30.0037C215.305 30.0037 214.118 29.7296 213.183 29.2272L213.776 27.6741C214.575 28.0165 215.898 28.3818 217.062 28.3818C219.093 28.3818 219.96 27.6741 219.96 26.5776C219.96 25.664 219.344 25.1157 216.948 24.2021C214.575 23.2885 213.16 22.5573 213.16 20.5472C213.16 18.4688 215.009 17.304 217.747 17.304C219.23 17.304 220.508 17.6235 221.65 18.1264L221.033 19.7477C219.983 19.2912 218.797 18.9483 217.61 18.9483C215.967 18.9483 215.077 19.5195 215.077 20.4331C215.077 21.4613 215.875 21.872 218.226 22.7632C220.554 23.6309 221.901 24.4304 221.901 26.3946C221.901 28.7706 220.006 30.0037 217.017 30.0037ZM229.636 28.0624L230.183 29.5013C229.75 29.7754 228.883 30.0037 227.947 30.0037C226.03 30.0037 224.364 29.1813 224.364 26.2122V15.4768L226.372 14.7227V17.5323H229.909V19.0853H226.372V26.1664C226.372 27.6512 227.171 28.3594 228.29 28.3594C228.746 28.3594 229.362 28.1994 229.636 28.0624ZM237.211 23.8597C234.154 23.9738 233.172 24.8416 233.172 26.3947C233.172 27.7653 234.085 28.3819 235.409 28.3819C237.463 28.3819 239.014 27.2629 239.014 24.8874V23.7909L237.211 23.8597ZM241 21.4384V29.7754H239.539L239.151 28.0394H239.06C237.988 29.3871 237.006 30.0037 234.952 30.0037C232.738 30.0037 231.096 28.8618 231.096 26.3723C231.096 23.928 232.967 22.5802 236.96 22.4661L239.037 22.3978V21.6666C239.037 19.6336 238.102 18.9483 236.504 18.9483C235.226 18.9483 234.062 19.4053 233.058 19.8848L232.442 18.3776C233.514 17.8064 235.021 17.3269 236.618 17.3269C239.585 17.3269 241 18.583 241 21.4384ZM82.4556 48.5574V48.1921C82.4556 45.1543 81.6339 43.4636 78.9185 43.4636C76.7503 43.4636 75.6776 45.3137 75.6776 48.215C75.6776 51.1387 76.7503 52.8289 78.9414 52.8289C81.5199 52.8289 82.4556 51.4124 82.4556 48.5574ZM73.6011 48.1691C73.6011 43.9665 75.6094 41.7964 78.6446 41.7964C80.5389 41.7964 81.6798 42.5959 82.4327 43.6007H82.5696C82.5243 43.2124 82.4327 42.2529 82.4327 41.7964V37.6849L84.441 36.9084V54.2678H82.8206L82.5243 52.623H82.4327C81.7027 53.6737 80.5389 54.4961 78.6217 54.4961C75.5865 54.4961 73.6011 52.3718 73.6011 48.1691ZM92.1532 52.8289C94.6177 52.8289 95.7361 51.0241 95.7361 48.1233C95.7361 45.2225 94.6177 43.4865 92.1303 43.4865C89.6429 43.4865 88.5703 45.2225 88.5703 48.1233C88.5703 51.0241 89.6658 52.8289 92.1532 52.8289ZM92.1074 54.4961C88.867 54.4961 86.4937 52.1894 86.4937 48.1233C86.4937 44.0806 88.6614 41.7964 92.1761 41.7964C95.4852 41.7964 97.8127 44.0806 97.8127 48.1233C97.8127 52.1894 95.5992 54.4961 92.1074 54.4961ZM110.614 54.4961C108.788 54.4961 107.168 54.2219 106.14 53.7196L106.78 52.0294C107.487 52.3489 108.97 52.7148 110.705 52.7148C113.124 52.7148 114.379 51.7094 114.379 50.0876C114.379 48.4887 113.489 47.8038 110.545 46.7302C107.761 45.7249 106.346 44.4231 106.346 41.8876C106.346 39.3068 108.468 37.7303 111.549 37.7303C113.329 37.7303 114.813 38.0961 116.045 38.6444L115.383 40.4028C114.242 39.9234 112.918 39.5351 111.504 39.5351C109.472 39.5351 108.423 40.4945 108.423 41.9106C108.423 43.5553 109.335 44.2177 111.983 45.1996C114.858 46.2732 116.433 47.3468 116.433 49.9052C116.433 52.806 114.174 54.4961 110.614 54.4961ZM126.313 36.9996C125.743 37.8449 124.122 39.6033 123.05 40.4257H121.726V40.1516C122.388 39.3068 123.369 37.7991 123.894 36.7713H126.313V36.9996ZM119.969 46.9356H126.199C126.176 44.8572 125.264 43.4407 123.232 43.4407C121.315 43.4407 120.174 44.7431 119.969 46.9356ZM128.299 47.3238V48.5345H119.923C119.992 51.2982 121.384 52.783 123.825 52.783C125.013 52.783 126.222 52.5547 127.18 52.1894L127.751 53.6966C126.496 54.2449 125.401 54.4961 123.734 54.4961C120.243 54.4961 117.847 52.3265 117.847 48.2374C117.847 44.2177 120.014 41.7964 123.255 41.7964C126.382 41.7964 128.299 43.9889 128.299 47.3238ZM135.714 52.5548L136.262 53.9937C135.829 54.2678 134.961 54.4961 134.026 54.4961C132.109 54.4961 130.443 53.6737 130.443 50.7046V39.9692L132.451 39.2151V42.0247H135.988V43.5777H132.451V50.6588C132.451 52.1435 133.25 52.8518 134.368 52.8518C134.824 52.8518 135.44 52.6918 135.714 52.5548ZM138.52 54.2678V42.0247H140.529V54.2678H138.52ZM140.711 38.7127C140.711 39.5809 140.164 39.9916 139.548 39.9916C138.886 39.9916 138.361 39.5809 138.361 38.7127C138.361 37.822 138.886 37.4338 139.548 37.4338C140.164 37.4338 140.711 37.822 140.711 38.7127ZM161.41 46.2961V54.2678H159.424V46.3873C159.424 44.4689 158.626 43.4865 156.936 43.4865C154.563 43.4865 153.627 44.9025 153.627 47.5068V54.2678H151.642V46.3873C151.642 44.4689 150.843 43.4865 149.132 43.4865C146.667 43.4865 145.868 45.0625 145.868 47.918V54.2678H143.86V42.0247H145.481L145.777 43.6924H145.891C146.644 42.4129 148.036 41.7964 149.497 41.7964C151.368 41.7964 152.646 42.4588 153.24 43.8519H153.354C154.175 42.4588 155.682 41.7964 157.279 41.7964C160.04 41.7964 161.41 43.1441 161.41 46.2961ZM169.258 52.8289C171.723 52.8289 172.841 51.0241 172.841 48.1233C172.841 45.2225 171.723 43.4865 169.236 43.4865C166.748 43.4865 165.675 45.2225 165.675 48.1233C165.675 51.0241 166.771 52.8289 169.258 52.8289ZM169.213 54.4961C165.972 54.4961 163.598 52.1894 163.598 48.1233C163.598 44.0806 165.767 41.7964 169.281 41.7964C172.59 41.7964 174.918 44.0806 174.918 48.1233C174.918 52.1894 172.704 54.4961 169.213 54.4961ZM188.563 39.7175H185.893V52.5089H188.106C192.511 52.5089 194.724 50.3164 194.724 46.022C194.724 41.6823 192.488 39.7175 188.563 39.7175ZM188.38 54.2678H183.839V37.9591H188.859C193.766 37.9591 196.893 40.7228 196.893 45.9537C196.893 51.4582 193.743 54.2678 188.38 54.2678ZM199.31 54.2678V42.0247H201.318V54.2678H199.31ZM201.501 38.7127C201.501 39.5809 200.953 39.9916 200.337 39.9916C199.675 39.9916 199.15 39.5809 199.15 38.7127C199.15 37.822 199.675 37.4338 200.337 37.4338C200.953 37.4338 201.501 37.822 201.501 38.7127ZM209.51 48.3521C206.452 48.4662 205.471 49.3339 205.471 50.8871C205.471 52.2577 206.384 52.8742 207.708 52.8742C209.761 52.8742 211.313 51.7553 211.313 49.3798V48.2833L209.51 48.3521ZM213.299 45.9308V54.2678H211.838L211.45 52.5318H211.359C210.286 53.8796 209.305 54.4961 207.251 54.4961C205.038 54.4961 203.394 53.3542 203.394 50.8646C203.394 48.4204 205.266 47.0727 209.259 46.9585L211.336 46.8902V46.159C211.336 44.126 210.4 43.4407 208.803 43.4407C207.525 43.4407 206.361 43.8977 205.357 44.3772L204.741 42.87C205.813 42.2988 207.319 41.8193 208.917 41.8193C211.884 41.8193 213.299 43.0754 213.299 45.9308ZM215.237 38.5986C215.442 38.5986 215.579 38.4844 215.579 38.3015C215.579 38.1191 215.465 38.0274 215.237 38.0274H215.032V38.5986H215.237ZM214.712 37.7532H215.237C215.694 37.7532 215.899 37.9361 215.899 38.3015C215.899 38.5527 215.739 38.6898 215.579 38.7586L216.059 39.558H215.694L215.283 38.8497H215.032V39.558H214.712V37.7532ZM216.561 38.6668C216.561 37.9591 216.036 37.365 215.283 37.365C214.529 37.365 214.005 37.9132 214.005 38.6668C214.005 39.3751 214.529 39.9463 215.283 39.9463C215.99 39.9463 216.561 39.4209 216.561 38.6668ZM213.777 38.6668C213.777 37.7762 214.393 37.1367 215.283 37.1367C216.127 37.1367 216.789 37.7762 216.789 38.6668C216.789 39.5351 216.15 40.1745 215.283 40.1745C214.393 40.1745 213.777 39.5351 213.777 38.6668Z" fill="white"></path>
  <path fill-rule="evenodd" clip-rule="evenodd" d="M31.4 50.7394C31.4 50.9603 31.6529 50.9611 31.6985 50.7394C32.0345 49.1076 32.5451 48.02 33.3434 46.9638L31.5484 46.9649C31.4665 46.9649 31.4 47.0314 31.4 47.1134V50.7394ZM44.5816 28.0897C44.5079 27.8512 44.3016 27.8354 44.3037 28.0853C44.324 30.4445 43.6461 32.4718 39.3439 36.7777L35.941 40.1808C34.3924 41.7308 32.9999 43.1463 32.1769 44.5608H35.5376C35.6664 44.4315 35.7984 44.2994 35.935 44.1626L40.817 39.2715C44.8828 35.2021 45.4497 30.8976 44.5816 28.0897ZM40.0193 42.4791L35.941 46.5641C33.4725 49.0347 31.4 51.1635 31.4 53.4916L31.4023 54.1398C31.4023 54.3158 31.621 54.3436 31.6883 54.1593C32.4504 52.0752 34.9968 49.8504 39.6675 50.6389C39.6675 50.6389 60.0154 54.1582 60.1864 54.1733C60.385 54.1908 60.4834 53.9949 60.3553 53.8424C60.2782 53.7507 50.8849 44.3496 50.8849 44.3496L40.0193 42.4791ZM25.2985 46.9638C25.2166 46.9638 25.1501 46.8974 25.1501 46.8153V44.708C25.1501 44.626 25.2166 44.5596 25.2985 44.5596L28.86 44.5604C28.9418 44.5604 29.0083 44.494 29.0083 44.4119C28.9989 42.519 27.5734 41.233 21.8615 42.2279L9.52812 44.3496C9.52812 44.3496 0.134634 53.7507 0.0576427 53.8424C-0.0705072 53.9949 0.0278264 54.1908 0.226486 54.1733C0.397479 54.1582 20.7454 50.6389 20.7454 50.6389C25.4161 49.8504 27.9625 52.0752 28.7246 54.1593C28.792 54.3436 29.0107 54.3158 29.0107 54.1398C29.0107 54.0128 29.0113 47.1124 29.0113 47.1124C29.0113 47.0303 28.9449 46.9638 28.8628 46.9638H25.2985ZM19.6135 17.5108C15.5477 21.5802 14.9808 25.8848 15.8489 28.6926C15.9226 28.9311 16.1289 28.9469 16.1269 28.697C16.1065 26.3378 16.7844 24.3106 21.0867 20.0046L30.3612 10.7245C32.8297 8.25388 34.9023 6.12515 34.9023 3.79706V0.165954C34.9023 -0.054938 34.6494 -0.0556975 34.6038 0.165954C33.9937 3.12922 32.8094 4.29849 30.3673 6.74273L19.6135 17.5108ZM34.9111 10.1741V6.5183C34.9111 6.29744 34.6581 6.29664 34.6125 6.5183C34.0024 9.48156 32.8212 10.6692 30.3791 13.1135L20.6383 22.8546C15.9113 27.5858 15.0934 32.1649 17.4977 35.1073C17.6579 35.3034 17.8304 35.1861 17.7257 34.9492C16.1363 31.3497 19.9479 27.5331 21.7627 25.7167L30.37 17.1015C32.8385 14.6309 34.9111 12.5021 34.9111 10.1741ZM20.9056 28.9699C16.1782 33.7016 18.352 38.2713 21.1094 39.5293C21.3513 39.6396 21.4474 39.4431 21.2624 39.2827C19.0512 37.3655 19.7227 34.1406 22.5033 31.3575L30.3601 23.4936C32.8286 21.0229 34.9012 18.8942 34.9012 16.5661V12.935C34.9012 12.7141 34.6482 12.7134 34.6027 12.935C33.9925 15.8983 32.8109 17.0626 30.3688 19.5068L20.9056 28.9699ZM31.3912 40.7313V44.3871C31.3912 44.6079 31.6441 44.6087 31.6897 44.3871C32.2998 41.4238 33.481 40.2362 35.9231 37.7919L39.7922 33.9277C44.5192 29.1965 45.3371 24.6175 42.9328 21.675C42.7726 21.4789 42.6002 21.5963 42.7048 21.8331C44.2942 25.4326 40.4826 29.2492 38.6678 31.0656L35.9322 33.8038C33.4638 36.2745 31.3912 38.4032 31.3912 40.7313ZM35.9334 31.3985C33.4914 33.8428 32.3097 35.0071 31.6996 37.9703C31.654 38.192 31.4011 38.1912 31.4011 37.9703V34.3392C31.4011 32.0111 33.4737 29.8824 35.9421 27.4118L37.9272 25.4248C40.7078 22.6418 41.3793 19.4168 39.1681 17.4996C38.9831 17.3392 39.0792 17.1427 39.3211 17.2531C42.0785 18.5109 44.2523 23.0807 39.5249 27.8124L35.9334 31.3985Z" fill="white"></path>
  <path fill-rule="evenodd" clip-rule="evenodd" d="M58.8555 47.2346C59.0698 47.2346 59.1977 47.115 59.1977 46.9416C59.1977 46.7478 59.0905 46.6653 58.8515 46.6653H58.6496V47.2346H58.8555ZM58.3365 46.4014H58.8639C59.3128 46.4014 59.5147 46.5788 59.5147 46.9336C59.5147 47.1931 59.3582 47.3374 59.1933 47.4036L59.6713 48.2037H59.3172L58.9049 47.4901H58.6496V48.2037H58.3365V46.4014ZM60.1783 47.3003C60.1783 46.5872 59.6466 46.0056 58.9009 46.0056C58.1553 46.0056 57.6195 46.5457 57.6195 47.3003C57.6195 48.0139 58.1553 48.5951 58.9009 48.5951C59.6056 48.5951 60.1783 48.055 60.1783 47.3003ZM57.3889 47.3003C57.3889 46.4221 58.0234 45.7871 58.9009 45.7871C59.7374 45.7871 60.4129 46.4221 60.4129 47.3003C60.4129 48.179 59.7784 48.8136 58.9009 48.8136C58.0234 48.8136 57.3889 48.179 57.3889 47.3003Z" fill="white"></path>
</svg>
