<svg width="18" height="18" viewBox="0 0 18 18" fill="none" xmlns="http://www.w3.org/2000/svg">
    <path clip-rule="evenodd" d="M5.835 7.324H3.786a1.49 1.49 0 0 1-1.49-1.49V3.787c0-.823.667-1.49 1.49-1.49h2.049c.823 0 1.49.667 1.49 1.49v2.049a1.49 1.49 0 0 1-1.49 1.49zM14.213 7.324h-2.048a1.49 1.49 0 0 1-1.49-1.49V3.787c0-.823.667-1.49 1.49-1.49h2.049c.822 0 1.49.667 1.49 1.49v2.049a1.49 1.49 0 0 1-1.49 1.49zM5.835 15.703H3.786a1.49 1.49 0 0 1-1.49-1.49v-2.048c0-.823.667-1.49 1.49-1.49h2.049c.823 0 1.49.667 1.49 1.49v2.049a1.49 1.49 0 0 1-1.49 1.49zM14.213 15.703h-2.048a1.49 1.49 0 0 1-1.49-1.49v-2.048c0-.823.667-1.49 1.49-1.49h2.049c.822 0 1.49.667 1.49 1.49v2.049a1.49 1.49 0 0 1-1.49 1.49z" stroke="#fff" stroke-width="1.5" stroke-linecap="round" stroke-linejoin="round"></path>
</svg>