<?xml version="1.0" encoding="UTF-8" standalone="no"?>
<!DOCTYPE svg PUBLIC "-//W3C//DTD SVG 1.1//EN" "http://www.w3.org/Graphics/SVG/1.1/DTD/svg11.dtd">
<svg width="100%" height="100%" viewBox="0 0 256 256" version="1.1" xmlns="http://www.w3.org/2000/svg" xmlns:xlink="http://www.w3.org/1999/xlink" xml:space="preserve" xmlns:serif="http://www.serif.com/" style="fill-rule:evenodd;clip-rule:evenodd;stroke-linejoin:round;stroke-miterlimit:2;">
    <path d="M247.136,103.767c0,23.224 -14.289,42.964 -34.172,50.168l12.039,19.929l-17.797,21.897l17.797,21.399l-28.722,38.532l-20.237,-21.588l-0,-81.638c-17.987,-8.176 -30.594,-26.897 -30.594,-48.699c0,-29.313 22.773,-53.082 50.831,-53.082c28.082,0.024 50.855,23.769 50.855,53.082Zm-50.855,8.152c6.778,0 12.276,-5.735 12.276,-12.82c-0,-7.086 -5.498,-12.82 -12.276,-12.82c-6.777,-0 -12.275,5.734 -12.275,12.82c-0,7.085 5.498,12.82 12.275,12.82Z" style="fill:#353535;"/>
    <path d="M247.278,103.933c0,22.939 -13.91,42.49 -33.389,49.978l11.09,19.953l-16.399,21.897l16.399,21.399l-28.698,38.84l0,-144.104c6.778,-0 12.276,-5.735 12.276,-12.821c-0,-7.085 -5.498,-12.82 -12.276,-12.82l0,-35.546c28.177,-0 50.997,23.816 50.997,53.224Z"/>
    <path d="M159.384,162.134c-16.422,-13.484 -27.441,-34.195 -28.958,-57.727l-88.013,0c-18.46,0 -33.413,15.19 -33.413,33.911l0,42.395c0,9.361 7.488,16.967 16.707,16.967l116.971,0c9.218,0 16.706,-7.583 16.706,-16.967l0,-18.579Z"/>
    <path d="M80.092,94.241c-4.075,-0.782 -8.128,-1.517 -11.967,-3.128c-14.574,-6.114 -23.057,-17.394 -25.806,-33.319c-1.896,-10.901 -0.996,-21.683 3.412,-31.873c6.256,-14.479 17.513,-22.347 32.252,-25.001c8.816,-1.588 17.608,-1.232 26.115,1.943c12.797,4.764 21.351,13.911 25.333,27.371c4.005,13.555 3.412,27.134 -2.631,39.954c-6.256,13.413 -17.204,20.593 -31.043,23.413c-1.162,0.237 -2.299,0.474 -3.46,0.687c-4.053,-0.047 -8.129,-0.047 -12.205,-0.047Z" style="fill:#141313;fill-rule:nonzero;"/>
</svg>
