<svg width="42" height="42" viewBox="0 0 42 42" fill="none" xmlns="http://www.w3.org/2000/svg"><path d="M20.805 0C9.341 0 0 9.341 0 20.805S9.341 41.61 20.805 41.61 41.61 32.27 41.61 20.805C41.61 9.341 32.27 0 20.805 0zm12.556 13.83v.788s0 .06-.06.06c0 0 0 .061-.061.061 0 0 0 .061-.061.061L22.807 32.754c-.425.668-1.153 1.092-1.88 1.092-.364 0-.729-.121-1.092-.303-1.032-.607-1.396-1.941-.789-2.972l8.492-14.74H14.194l1.94 3.336c.607 1.031.304 2.366-.727 2.973-.364.181-.728.303-1.092.303a2.234 2.234 0 01-1.88-1.031l-3.822-6.49c-.606-1.032-.303-2.366.728-2.973.06-.06.121-.06.243-.121.303-.121.606-.243.91-.243h20.683c.182 0 .304 0 .486.061h.484s.062 0 .062.06c0 0 .06 0 .06.061l.06.061s.061 0 .061.06h.061l.06.061s.061 0 .061.06l.061.062c.121.12.182.182.243.303l.06.06.061.061c.182.243.243.546.303.85v.181c.061.243.061.243.061.304 0-.061 0-.061 0 0z" fill="#F16723"/></svg>